<svg width="25" height="24" viewBox="0 0 25 24" fill="none" xmlns="http://www.w3.org/2000/svg">
<path d="M23.5936 9.91355L13.8042 9.91309C13.3719 9.91309 13.0215 10.2634 13.0215 10.6957V13.823C13.0215 14.2552 13.3719 14.6056 13.8041 14.6056H19.3169C18.7133 16.1722 17.5866 17.4842 16.1491 18.3178L18.4997 22.387C22.2705 20.2062 24.4998 16.3799 24.4998 12.0965C24.4998 11.4866 24.4548 11.0506 24.3649 10.5597C24.2966 10.1867 23.9728 9.91355 23.5936 9.91355Z" fill="#167EE6"/>
<path d="M12.4984 19.3042C9.80051 19.3042 7.44531 17.8302 6.18038 15.6489L2.11133 17.9943C4.18204 21.5831 8.06116 23.9999 12.4984 23.9999C14.6751 23.9999 16.729 23.4138 18.4984 22.3924V22.3868L16.1477 18.3176C15.0725 18.9412 13.8283 19.3042 12.4984 19.3042Z" fill="#12B347"/>
<path d="M18.5 22.3927V22.3871L16.1494 18.3179C15.0742 18.9414 13.83 19.3044 12.5 19.3044V24.0001C14.6767 24.0001 16.7308 23.414 18.5 22.3927Z" fill="#0F993E"/>
<path d="M5.19568 12.0003C5.19568 10.6705 5.55859 9.42638 6.18208 8.3512L2.11302 6.00586C1.08603 7.76963 0.5 9.81797 0.5 12.0003C0.5 14.1826 1.08603 16.2309 2.11302 17.9947L6.18208 15.6494C5.55859 14.5742 5.19568 13.3301 5.19568 12.0003Z" fill="#FFD500"/>
<path d="M12.4984 4.69566C14.2576 4.69566 15.8736 5.32078 17.1358 6.36061C17.4472 6.61711 17.8998 6.59859 18.185 6.31336L20.4008 4.09758C20.7245 3.77395 20.7014 3.24422 20.3557 2.94431C18.2409 1.10967 15.4893 0 12.4984 0C8.06115 0 4.18204 2.41673 2.11133 6.00558L6.18038 8.35092C7.44531 6.16969 9.80051 4.69566 12.4984 4.69566Z" fill="#FF4B26"/>
<path d="M17.1375 6.36061C17.4489 6.61711 17.9015 6.5986 18.1867 6.31336L20.4025 4.09758C20.726 3.77395 20.703 3.24422 20.3573 2.94431C18.2425 1.10963 15.491 0 12.5 0V4.69566C14.2592 4.69566 15.8753 5.32078 17.1375 6.36061Z" fill="#D93F21"/>
</svg>
